  0
SECTION
  2
ENTITIES
  0
POINT
  8
Puntos
 10
-717.521
 20
-294.259
 30
0.0
  0
POINT
  8
Puntos
 10
-710.427
 20
-301.308
 30
0.0
  0
POINT
  8
Puntos
 10
-712.458
 20
-303.358
 30
0.0
  0
POINT
  8
Puntos
 10
-720.982
 20
-311.965
 30
0.0
  0
POINT
  8
Puntos
 10
-728.076
 20
-304.917
 30
0.0
  0
POINT
  8
Puntos
 10
-719.141
 20
-295.895
 30
0.0
  0
POINT
  8
Puntos
 10
-823.055
 20
-189.402
 30
0.0
  0
POINT
  8
Puntos
 10
-824.687
 20
-191.05
 30
0.0
  0
POINT
  8
Puntos
 10
-833.61
 20
-200.06
 30
0.0
  0
POINT
  8
Puntos
 10
1194.826
 20
-336.827
 30
0.0
  0
POINT
  8
Puntos
 10
1193.845
 20
-346.779
 30
0.0
  0
POINT
  8
Puntos
 10
1179.863
 20
-3.03
 30
0.0
  0
POINT
  8
Puntos
 10
1186.806
 20
-84.952
 30
0.0
  0
POINT
  8
Puntos
 10
1199.822
 20
-100.894
 30
0.0
  0
POINT
  8
Puntos
 10
1197.595
 20
-140.642
 30
0.0
  0
POINT
  8
Puntos
 10
1212.412
 20
-160.193
 30
0.0
  0
POINT
  8
Puntos
 10
1204.252
 20
-229.721
 30
0.0
  0
POINT
  8
Puntos
 10
1203.046
 20
-313.021
 30
0.0
  0
POINT
  8
Puntos
 10
1195.948
 20
-325.457
 30
0.0
  0
POINT
  8
Puntos
 10
1190.689
 20
-378.783
 30
0.0
  0
POINT
  8
Puntos
 10
1200.048
 20
-388.082
 30
0.0
  0
POINT
  8
Puntos
 10
-88.815
 20
326.356
 30
0.0
  0
POINT
  8
Puntos
 10
-95.919
 20
333.394
 30
0.0
  0
POINT
  8
Puntos
 10
193.793
 20
611.715
 30
0.0
  0
POINT
  8
Puntos
 10
186.699
 20
618.763
 30
0.0
  0
POINT
  8
Puntos
 10
1228.676
 20
-350.213
 30
0.0
  0
POINT
  8
Puntos
 10
1229.658
 20
-340.261
 30
0.0
  0
POINT
  8
Puntos
 10
1227.695
 20
-360.165
 30
0.0
  0
POINT
  8
Puntos
 10
1230.046
 20
-336.322
 30
0.0
  0
POINT
  8
Puntos
 10
1237.911
 20
-322.542
 30
0.0
  0
POINT
  8
Puntos
 10
1227.695
 20
-360.165
 30
0.0
  0
POINT
  8
Puntos
 10
1514.922
 20
170.496
 30
0.0
  0
POINT
  8
Puntos
 10
1488.055
 20
186.348
 30
0.0
  0
POINT
  8
Puntos
 10
1488.995
 20
201.656
 30
0.0
  0
POINT
  8
Puntos
 10
1508.741
 20
196.912
 30
0.0
  0
POINT
  8
Puntos
 10
1508.268
 20
189.201
 30
0.0
  0
POINT
  8
Puntos
 10
1495.252
 20
166.117
 30
0.0
  0
POINT
  8
Puntos
 10
1331.542
 20
181.333
 30
0.0
  0
POINT
  8
Puntos
 10
1523.696
 20
153.443
 30
0.0
  0
POINT
  8
Puntos
 10
1560.218
 20
59.474
 30
0.0
  0
POINT
  8
Puntos
 10
1541.221
 20
53.143
 30
0.0
  0
POINT
  8
Puntos
 10
1509.73
 20
134.166
 30
0.0
  0
POINT
  8
Puntos
 10
1562.315
 20
-22.277
 30
0.0
  0
POINT
  8
Puntos
 10
1220.767
 20
-71.205
 30
0.0
  0
POINT
  8
Puntos
 10
1216.681
 20
-23.0
 30
0.0
  0
POINT
  8
Puntos
 10
1248.815
 20
-150.28
 30
0.0
  0
POINT
  8
Puntos
 10
1239.223
 20
-232.02
 30
0.0
  0
POINT
  8
Puntos
 10
1233.26
 20
-129.755
 30
0.0
  0
POINT
  8
Puntos
 10
1235.528
 20
-89.284
 30
0.0
  0
POINT
  8
Puntos
 10
1495.252
 20
166.117
 30
0.0
  0
POINT
  8
Puntos
 10
1509.73
 20
134.166
 30
0.0
  0
POINT
  8
Puntos
 10
1578.509
 20
-5.925
 30
0.0
  0
POINT
  8
Puntos
 10
1565.958
 20
392.726
 30
0.0
  0
POINT
  8
Puntos
 10
1567.822
 20
382.902
 30
0.0
  0
POINT
  8
Puntos
 10
1561.84
 20
414.435
 30
0.0
  0
POINT
  8
Puntos
 10
1585.608
 20
396.453
 30
0.0
  0
POINT
  8
Puntos
 10
1578.918
 20
431.721
 30
0.0
  0
POINT
  8
Puntos
 10
1587.471
 20
386.629
 30
0.0
  0
POINT
  8
Puntos
 10
1588.62
 20
380.575
 30
0.0
  0
POINT
  8
Puntos
 10
1718.092
 20
572.589
 30
0.0
  0
POINT
  8
Puntos
 10
1936.604
 20
355.667
 30
0.0
  0
POINT
  8
Puntos
 10
81.165
 20
723.62
 30
0.0
  0
POINT
  8
Puntos
 10
744.544
 20
764.066
 30
0.0
  0
ENDSEC
  0
EOF
