  0
SECTION
  2
ENTITIES
  0
POINT
  8
Puntos
 10
5385163.62765
 20
6252106.34433
 30
0.0
  0
POINT
  8
Puntos
 10
5385170.80688
 20
6252099.37982
 30
0.0
  0
POINT
  8
Puntos
 10
5385168.80029
 20
6252097.30526
 30
0.0
  0
POINT
  8
Puntos
 10
5385160.3788
 20
6252088.5952
 30
0.0
  0
POINT
  8
Puntos
 10
5385153.19959
 20
6252095.55872
 30
0.0
  0
POINT
  8
Puntos
 10
5385162.02714
 20
6252104.68875
 30
0.0
  0
POINT
  8
Puntos
 10
5385056.82589
 20
6252209.94452
 30
0.0
  0
POINT
  8
Puntos
 10
5385055.21352
 20
6252208.27679
 30
0.0
  0
POINT
  8
Puntos
 10
5385046.39782
 20
6252199.15891
 30
0.0
  0
POINT
  8
Puntos
 10
5387076.65339
 20
6252086.71938
 30
0.0
  0
POINT
  8
Puntos
 10
5387075.79172
 20
6252076.75476
 30
0.0
  0
POINT
  8
Puntos
 10
5387057.68395
 20
6252420.36527
 30
0.0
  0
POINT
  8
Puntos
 10
5387065.61048
 20
6252338.51959
 30
0.0
  0
POINT
  8
Puntos
 10
5387078.81887
 20
6252322.73241
 30
0.0
  0
POINT
  8
Puntos
 10
5387077.0686
 20
6252282.9543
 30
0.0
  0
POINT
  8
Puntos
 10
5387092.12145
 20
6252263.57943
 30
0.0
  0
POINT
  8
Puntos
 10
5387084.79501
 20
6252193.9476
 30
0.0
  0
POINT
  8
Puntos
 10
5387084.58844
 20
6252110.62604
 30
0.0
  0
POINT
  8
Puntos
 10
5387077.63905
 20
6252098.10381
 30
0.0
  0
POINT
  8
Puntos
 10
5387073.01948
 20
6252044.71016
 30
0.0
  0
POINT
  8
Puntos
 10
5387082.49086
 20
6252035.52267
 30
0.0
  0
POINT
  8
Puntos
 10
5385784.94364
 20
6252734.55843
 30
0.0
  0
POINT
  8
Puntos
 10
5385777.75457
 20
6252741.51183
 30
0.0
  0
POINT
  8
Puntos
 10
5386064.15315
 20
6253023.33313
 30
0.0
  0
POINT
  8
Puntos
 10
5386056.97397
 20
6253030.29665
 30
0.0
  0
POINT
  8
Puntos
 10
5387110.66689
 20
6252073.73841
 30
0.0
  0
POINT
  8
Puntos
 10
5387111.52956
 20
6252083.70304
 30
0.0
  0
POINT
  8
Puntos
 10
5387109.80523
 20
6252063.7738
 30
0.0
  0
POINT
  8
Puntos
 10
5387111.87033
 20
6252087.64703
 30
0.0
  0
POINT
  8
Puntos
 10
5387119.57065
 20
6252101.52258
 30
0.0
  0
POINT
  8
Puntos
 10
5387109.80523
 20
6252063.7738
 30
0.0
  0
POINT
  8
Puntos
 10
5387390.68936
 20
6252597.92603
 30
0.0
  0
POINT
  8
Puntos
 10
5387363.62991
 20
6252613.45703
 30
0.0
  0
POINT
  8
Puntos
 10
5387364.38633
 20
6252628.7776
 30
0.0
  0
POINT
  8
Puntos
 10
5387384.19091
 20
6252624.2701
 30
0.0
  0
POINT
  8
Puntos
 10
5387383.81038
 20
6252616.55278
 30
0.0
  0
POINT
  8
Puntos
 10
5387371.07024
 20
6252593.31067
 30
0.0
  0
POINT
  8
Puntos
 10
5387207.16384
 20
6252606.56379
 30
0.0
  0
POINT
  8
Puntos
 10
5387399.6687
 20
6252580.97687
 30
0.0
  0
POINT
  8
Puntos
 10
5387437.32122
 20
6252487.43815
 30
0.0
  0
POINT
  8
Puntos
 10
5387418.39858
 20
6252480.87869
 30
0.0
  0
POINT
  8
Puntos
 10
5387385.93281
 20
6252561.53068
 30
0.0
  0
POINT
  8
Puntos
 10
5387440.39926
 20
6252405.70543
 30
0.0
  0
POINT
  8
Puntos
 10
5387099.40943
 20
6252352.67525
 30
0.0
  0
POINT
  8
Puntos
 10
5387094.74469
 20
6252400.83532
 30
0.0
  0
POINT
  8
Puntos
 10
5387128.4086
 20
6252273.93006
 30
0.0
  0
POINT
  8
Puntos
 10
5387119.79658
 20
6252192.06802
 30
0.0
  0
POINT
  8
Puntos
 10
5387112.60601
 20
6252294.27016
 30
0.0
  0
POINT
  8
Puntos
 10
5387114.3886
 20
6252334.77182
 30
0.0
  0
POINT
  8
Puntos
 10
5387371.07024
 20
6252593.31067
 30
0.0
  0
POINT
  8
Puntos
 10
5387385.93281
 20
6252561.53068
 30
0.0
  0
POINT
  8
Puntos
 10
5387456.39843
 20
6252422.25311
 30
0.0
  0
POINT
  8
Puntos
 10
5387439.06345
 20
6252820.78705
 30
0.0
  0
POINT
  8
Puntos
 10
5387441.04547
 20
6252810.98459
 30
0.0
  0
POINT
  8
Puntos
 10
5387434.68466
 20
6252842.44847
 30
0.0
  0
POINT
  8
Puntos
 10
5387458.67039
 20
6252824.75011
 30
0.0
  0
POINT
  8
Puntos
 10
5387451.55672
 20
6252859.94082
 30
0.0
  0
POINT
  8
Puntos
 10
5387460.65141
 20
6252814.94764
 30
0.0
  0
POINT
  8
Puntos
 10
5387461.87314
 20
6252808.90691
 30
0.0
  0
POINT
  8
Puntos
 10
5387589.05242
 20
6253002.49029
 30
0.0
  0
POINT
  8
Puntos
 10
5387810.18505
 20
6252788.17168
 30
0.0
  0
POINT
  8
Puntos
 10
5385950.17275
 20
6253133.89685
 30
0.0
  0
POINT
  8
Puntos
 10
5386613.12453
 20
6253182.30447
 30
0.0
  0
POINT
  8
Puntos
 10
5385163.62765
 20
6252106.34433
 30
0.0
  0
POINT
  8
Puntos
 10
5385170.80688
 20
6252099.37982
 30
0.0
  0
POINT
  8
Puntos
 10
5385168.80029
 20
6252097.30526
 30
0.0
  0
POINT
  8
Puntos
 10
5385160.3788
 20
6252088.5952
 30
0.0
  0
POINT
  8
Puntos
 10
5385153.19959
 20
6252095.55872
 30
0.0
  0
POINT
  8
Puntos
 10
5385162.02714
 20
6252104.68875
 30
0.0
  0
POINT
  8
Puntos
 10
5385056.82589
 20
6252209.94452
 30
0.0
  0
POINT
  8
Puntos
 10
5385055.21352
 20
6252208.27679
 30
0.0
  0
POINT
  8
Puntos
 10
5385046.39782
 20
6252199.15891
 30
0.0
  0
POINT
  8
Puntos
 10
5387076.65339
 20
6252086.71938
 30
0.0
  0
POINT
  8
Puntos
 10
5387075.79172
 20
6252076.75476
 30
0.0
  0
POINT
  8
Puntos
 10
5387057.68395
 20
6252420.36527
 30
0.0
  0
POINT
  8
Puntos
 10
5387065.61048
 20
6252338.51959
 30
0.0
  0
POINT
  8
Puntos
 10
5387078.81887
 20
6252322.73241
 30
0.0
  0
POINT
  8
Puntos
 10
5387077.0686
 20
6252282.9543
 30
0.0
  0
POINT
  8
Puntos
 10
5387092.12145
 20
6252263.57943
 30
0.0
  0
POINT
  8
Puntos
 10
5387084.79501
 20
6252193.9476
 30
0.0
  0
POINT
  8
Puntos
 10
5387084.58844
 20
6252110.62604
 30
0.0
  0
POINT
  8
Puntos
 10
5387077.63905
 20
6252098.10381
 30
0.0
  0
POINT
  8
Puntos
 10
5387073.01948
 20
6252044.71016
 30
0.0
  0
POINT
  8
Puntos
 10
5387082.49086
 20
6252035.52267
 30
0.0
  0
POINT
  8
Puntos
 10
5385784.94364
 20
6252734.55843
 30
0.0
  0
POINT
  8
Puntos
 10
5385777.75457
 20
6252741.51183
 30
0.0
  0
POINT
  8
Puntos
 10
5386064.15315
 20
6253023.33313
 30
0.0
  0
POINT
  8
Puntos
 10
5386056.97397
 20
6253030.29665
 30
0.0
  0
POINT
  8
Puntos
 10
5387110.66689
 20
6252073.73841
 30
0.0
  0
POINT
  8
Puntos
 10
5387111.52956
 20
6252083.70304
 30
0.0
  0
POINT
  8
Puntos
 10
5387109.80523
 20
6252063.7738
 30
0.0
  0
POINT
  8
Puntos
 10
5387111.87033
 20
6252087.64703
 30
0.0
  0
POINT
  8
Puntos
 10
5387119.57065
 20
6252101.52258
 30
0.0
  0
POINT
  8
Puntos
 10
5387109.80523
 20
6252063.7738
 30
0.0
  0
POINT
  8
Puntos
 10
5387390.68936
 20
6252597.92603
 30
0.0
  0
POINT
  8
Puntos
 10
5387363.62991
 20
6252613.45703
 30
0.0
  0
POINT
  8
Puntos
 10
5387364.38633
 20
6252628.7776
 30
0.0
  0
POINT
  8
Puntos
 10
5387384.19091
 20
6252624.2701
 30
0.0
  0
POINT
  8
Puntos
 10
5387383.81038
 20
6252616.55278
 30
0.0
  0
POINT
  8
Puntos
 10
5387371.07024
 20
6252593.31067
 30
0.0
  0
POINT
  8
Puntos
 10
5387207.16384
 20
6252606.56379
 30
0.0
  0
POINT
  8
Puntos
 10
5387399.6687
 20
6252580.97687
 30
0.0
  0
POINT
  8
Puntos
 10
5387437.32122
 20
6252487.43815
 30
0.0
  0
POINT
  8
Puntos
 10
5387418.39858
 20
6252480.87869
 30
0.0
  0
POINT
  8
Puntos
 10
5387385.93281
 20
6252561.53068
 30
0.0
  0
POINT
  8
Puntos
 10
5387440.39926
 20
6252405.70543
 30
0.0
  0
POINT
  8
Puntos
 10
5387099.40943
 20
6252352.67525
 30
0.0
  0
POINT
  8
Puntos
 10
5387094.74469
 20
6252400.83532
 30
0.0
  0
POINT
  8
Puntos
 10
5387128.4086
 20
6252273.93006
 30
0.0
  0
POINT
  8
Puntos
 10
5387119.79658
 20
6252192.06802
 30
0.0
  0
POINT
  8
Puntos
 10
5387112.60601
 20
6252294.27016
 30
0.0
  0
POINT
  8
Puntos
 10
5387114.3886
 20
6252334.77182
 30
0.0
  0
POINT
  8
Puntos
 10
5387371.07024
 20
6252593.31067
 30
0.0
  0
POINT
  8
Puntos
 10
5387385.93281
 20
6252561.53068
 30
0.0
  0
POINT
  8
Puntos
 10
5387456.39843
 20
6252422.25311
 30
0.0
  0
POINT
  8
Puntos
 10
5387439.06345
 20
6252820.78705
 30
0.0
  0
POINT
  8
Puntos
 10
5387441.04547
 20
6252810.98459
 30
0.0
  0
POINT
  8
Puntos
 10
5387434.68466
 20
6252842.44847
 30
0.0
  0
POINT
  8
Puntos
 10
5387458.67039
 20
6252824.75011
 30
0.0
  0
POINT
  8
Puntos
 10
5387451.55672
 20
6252859.94082
 30
0.0
  0
POINT
  8
Puntos
 10
5387460.65141
 20
6252814.94764
 30
0.0
  0
POINT
  8
Puntos
 10
5387461.87314
 20
6252808.90691
 30
0.0
  0
POINT
  8
Puntos
 10
5387589.05242
 20
6253002.49029
 30
0.0
  0
POINT
  8
Puntos
 10
5387810.18505
 20
6252788.17168
 30
0.0
  0
POINT
  8
Puntos
 10
5385950.17275
 20
6253133.89685
 30
0.0
  0
POINT
  8
Puntos
 10
5386613.12453
 20
6253182.30447
 30
0.0
  0
POINT
  8
Puntos
 10
5385163.62765
 20
6252106.34433
 30
0.0
  0
POINT
  8
Puntos
 10
5385170.80688
 20
6252099.37982
 30
0.0
  0
POINT
  8
Puntos
 10
5385168.80029
 20
6252097.30526
 30
0.0
  0
POINT
  8
Puntos
 10
5385160.3788
 20
6252088.5952
 30
0.0
  0
POINT
  8
Puntos
 10
5385153.19959
 20
6252095.55872
 30
0.0
  0
POINT
  8
Puntos
 10
5385162.02714
 20
6252104.68875
 30
0.0
  0
POINT
  8
Puntos
 10
5385056.82589
 20
6252209.94452
 30
0.0
  0
POINT
  8
Puntos
 10
5385055.21352
 20
6252208.27679
 30
0.0
  0
POINT
  8
Puntos
 10
5385046.39782
 20
6252199.15891
 30
0.0
  0
POINT
  8
Puntos
 10
5387076.65339
 20
6252086.71938
 30
0.0
  0
POINT
  8
Puntos
 10
5387075.79172
 20
6252076.75476
 30
0.0
  0
POINT
  8
Puntos
 10
5387057.68395
 20
6252420.36527
 30
0.0
  0
POINT
  8
Puntos
 10
5387065.61048
 20
6252338.51959
 30
0.0
  0
POINT
  8
Puntos
 10
5387078.81887
 20
6252322.73241
 30
0.0
  0
POINT
  8
Puntos
 10
5387077.0686
 20
6252282.9543
 30
0.0
  0
POINT
  8
Puntos
 10
5387092.12145
 20
6252263.57943
 30
0.0
  0
POINT
  8
Puntos
 10
5387084.79501
 20
6252193.9476
 30
0.0
  0
POINT
  8
Puntos
 10
5387084.58844
 20
6252110.62604
 30
0.0
  0
POINT
  8
Puntos
 10
5387077.63905
 20
6252098.10381
 30
0.0
  0
POINT
  8
Puntos
 10
5387073.01948
 20
6252044.71016
 30
0.0
  0
POINT
  8
Puntos
 10
5387082.49086
 20
6252035.52267
 30
0.0
  0
POINT
  8
Puntos
 10
5385784.94364
 20
6252734.55843
 30
0.0
  0
POINT
  8
Puntos
 10
5385777.75457
 20
6252741.51183
 30
0.0
  0
POINT
  8
Puntos
 10
5386064.15315
 20
6253023.33313
 30
0.0
  0
POINT
  8
Puntos
 10
5386056.97397
 20
6253030.29665
 30
0.0
  0
POINT
  8
Puntos
 10
5387110.66689
 20
6252073.73841
 30
0.0
  0
POINT
  8
Puntos
 10
5387111.52956
 20
6252083.70304
 30
0.0
  0
POINT
  8
Puntos
 10
5387109.80523
 20
6252063.7738
 30
0.0
  0
POINT
  8
Puntos
 10
5387111.87033
 20
6252087.64703
 30
0.0
  0
POINT
  8
Puntos
 10
5387119.57065
 20
6252101.52258
 30
0.0
  0
POINT
  8
Puntos
 10
5387109.80523
 20
6252063.7738
 30
0.0
  0
POINT
  8
Puntos
 10
5387390.68936
 20
6252597.92603
 30
0.0
  0
POINT
  8
Puntos
 10
5387363.62991
 20
6252613.45703
 30
0.0
  0
POINT
  8
Puntos
 10
5387364.38633
 20
6252628.7776
 30
0.0
  0
POINT
  8
Puntos
 10
5387384.19091
 20
6252624.2701
 30
0.0
  0
POINT
  8
Puntos
 10
5387383.81038
 20
6252616.55278
 30
0.0
  0
POINT
  8
Puntos
 10
5387371.07024
 20
6252593.31067
 30
0.0
  0
POINT
  8
Puntos
 10
5387207.16384
 20
6252606.56379
 30
0.0
  0
POINT
  8
Puntos
 10
5387399.6687
 20
6252580.97687
 30
0.0
  0
POINT
  8
Puntos
 10
5387437.32122
 20
6252487.43815
 30
0.0
  0
POINT
  8
Puntos
 10
5387418.39858
 20
6252480.87869
 30
0.0
  0
POINT
  8
Puntos
 10
5387385.93281
 20
6252561.53068
 30
0.0
  0
POINT
  8
Puntos
 10
5387440.39926
 20
6252405.70543
 30
0.0
  0
POINT
  8
Puntos
 10
5387099.40943
 20
6252352.67525
 30
0.0
  0
POINT
  8
Puntos
 10
5387094.74469
 20
6252400.83532
 30
0.0
  0
POINT
  8
Puntos
 10
5387128.4086
 20
6252273.93006
 30
0.0
  0
POINT
  8
Puntos
 10
5387119.79658
 20
6252192.06802
 30
0.0
  0
POINT
  8
Puntos
 10
5387112.60601
 20
6252294.27016
 30
0.0
  0
POINT
  8
Puntos
 10
5387114.3886
 20
6252334.77182
 30
0.0
  0
POINT
  8
Puntos
 10
5387371.07024
 20
6252593.31067
 30
0.0
  0
POINT
  8
Puntos
 10
5387385.93281
 20
6252561.53068
 30
0.0
  0
POINT
  8
Puntos
 10
5387456.39843
 20
6252422.25311
 30
0.0
  0
POINT
  8
Puntos
 10
5387439.06345
 20
6252820.78705
 30
0.0
  0
POINT
  8
Puntos
 10
5387441.04547
 20
6252810.98459
 30
0.0
  0
POINT
  8
Puntos
 10
5387434.68466
 20
6252842.44847
 30
0.0
  0
POINT
  8
Puntos
 10
5387458.67039
 20
6252824.75011
 30
0.0
  0
POINT
  8
Puntos
 10
5387451.55672
 20
6252859.94082
 30
0.0
  0
POINT
  8
Puntos
 10
5387460.65141
 20
6252814.94764
 30
0.0
  0
POINT
  8
Puntos
 10
5387461.87314
 20
6252808.90691
 30
0.0
  0
POINT
  8
Puntos
 10
5387589.05242
 20
6253002.49029
 30
0.0
  0
POINT
  8
Puntos
 10
5387810.18505
 20
6252788.17168
 30
0.0
  0
POINT
  8
Puntos
 10
5385950.17275
 20
6253133.89685
 30
0.0
  0
POINT
  8
Puntos
 10
5386613.12453
 20
6253182.30447
 30
0.0
  0
POINT
  8
Puntos
 10
5385163.62765
 20
6252106.34433
 30
0.0
  0
POINT
  8
Puntos
 10
5385170.80688
 20
6252099.37982
 30
0.0
  0
POINT
  8
Puntos
 10
5385168.80029
 20
6252097.30526
 30
0.0
  0
POINT
  8
Puntos
 10
5385160.3788
 20
6252088.5952
 30
0.0
  0
POINT
  8
Puntos
 10
5385153.19959
 20
6252095.55872
 30
0.0
  0
POINT
  8
Puntos
 10
5385162.02714
 20
6252104.68875
 30
0.0
  0
POINT
  8
Puntos
 10
5385056.82589
 20
6252209.94452
 30
0.0
  0
POINT
  8
Puntos
 10
5385055.21352
 20
6252208.27679
 30
0.0
  0
POINT
  8
Puntos
 10
5385046.39782
 20
6252199.15891
 30
0.0
  0
POINT
  8
Puntos
 10
5387076.65339
 20
6252086.71938
 30
0.0
  0
POINT
  8
Puntos
 10
5387075.79172
 20
6252076.75476
 30
0.0
  0
POINT
  8
Puntos
 10
5387057.68395
 20
6252420.36527
 30
0.0
  0
POINT
  8
Puntos
 10
5387065.61048
 20
6252338.51959
 30
0.0
  0
POINT
  8
Puntos
 10
5387078.81887
 20
6252322.73241
 30
0.0
  0
POINT
  8
Puntos
 10
5387077.0686
 20
6252282.9543
 30
0.0
  0
POINT
  8
Puntos
 10
5387092.12145
 20
6252263.57943
 30
0.0
  0
POINT
  8
Puntos
 10
5387084.79501
 20
6252193.9476
 30
0.0
  0
POINT
  8
Puntos
 10
5387084.58844
 20
6252110.62604
 30
0.0
  0
POINT
  8
Puntos
 10
5387077.63905
 20
6252098.10381
 30
0.0
  0
POINT
  8
Puntos
 10
5387073.01948
 20
6252044.71016
 30
0.0
  0
POINT
  8
Puntos
 10
5387082.49086
 20
6252035.52267
 30
0.0
  0
POINT
  8
Puntos
 10
5385784.94364
 20
6252734.55843
 30
0.0
  0
POINT
  8
Puntos
 10
5385777.75457
 20
6252741.51183
 30
0.0
  0
POINT
  8
Puntos
 10
5386064.15315
 20
6253023.33313
 30
0.0
  0
POINT
  8
Puntos
 10
5386056.97397
 20
6253030.29665
 30
0.0
  0
POINT
  8
Puntos
 10
5387110.66689
 20
6252073.73841
 30
0.0
  0
POINT
  8
Puntos
 10
5387111.52956
 20
6252083.70304
 30
0.0
  0
POINT
  8
Puntos
 10
5387109.80523
 20
6252063.7738
 30
0.0
  0
POINT
  8
Puntos
 10
5387111.87033
 20
6252087.64703
 30
0.0
  0
POINT
  8
Puntos
 10
5387119.57065
 20
6252101.52258
 30
0.0
  0
POINT
  8
Puntos
 10
5387109.80523
 20
6252063.7738
 30
0.0
  0
POINT
  8
Puntos
 10
5387390.68936
 20
6252597.92603
 30
0.0
  0
POINT
  8
Puntos
 10
5387363.62991
 20
6252613.45703
 30
0.0
  0
POINT
  8
Puntos
 10
5387364.38633
 20
6252628.7776
 30
0.0
  0
POINT
  8
Puntos
 10
5387384.19091
 20
6252624.2701
 30
0.0
  0
POINT
  8
Puntos
 10
5387383.81038
 20
6252616.55278
 30
0.0
  0
POINT
  8
Puntos
 10
5387371.07024
 20
6252593.31067
 30
0.0
  0
POINT
  8
Puntos
 10
5387207.16384
 20
6252606.56379
 30
0.0
  0
POINT
  8
Puntos
 10
5387399.6687
 20
6252580.97687
 30
0.0
  0
POINT
  8
Puntos
 10
5387437.32122
 20
6252487.43815
 30
0.0
  0
POINT
  8
Puntos
 10
5387418.39858
 20
6252480.87869
 30
0.0
  0
POINT
  8
Puntos
 10
5387385.93281
 20
6252561.53068
 30
0.0
  0
POINT
  8
Puntos
 10
5387440.39926
 20
6252405.70543
 30
0.0
  0
POINT
  8
Puntos
 10
5387099.40943
 20
6252352.67525
 30
0.0
  0
POINT
  8
Puntos
 10
5387094.74469
 20
6252400.83532
 30
0.0
  0
POINT
  8
Puntos
 10
5387128.4086
 20
6252273.93006
 30
0.0
  0
POINT
  8
Puntos
 10
5387119.79658
 20
6252192.06802
 30
0.0
  0
POINT
  8
Puntos
 10
5387112.60601
 20
6252294.27016
 30
0.0
  0
POINT
  8
Puntos
 10
5387114.3886
 20
6252334.77182
 30
0.0
  0
POINT
  8
Puntos
 10
5387371.07024
 20
6252593.31067
 30
0.0
  0
POINT
  8
Puntos
 10
5387385.93281
 20
6252561.53068
 30
0.0
  0
POINT
  8
Puntos
 10
5387456.39843
 20
6252422.25311
 30
0.0
  0
POINT
  8
Puntos
 10
5387439.06345
 20
6252820.78705
 30
0.0
  0
POINT
  8
Puntos
 10
5387441.04547
 20
6252810.98459
 30
0.0
  0
POINT
  8
Puntos
 10
5387434.68466
 20
6252842.44847
 30
0.0
  0
POINT
  8
Puntos
 10
5387458.67039
 20
6252824.75011
 30
0.0
  0
POINT
  8
Puntos
 10
5387451.55672
 20
6252859.94082
 30
0.0
  0
POINT
  8
Puntos
 10
5387460.65141
 20
6252814.94764
 30
0.0
  0
POINT
  8
Puntos
 10
5387461.87314
 20
6252808.90691
 30
0.0
  0
POINT
  8
Puntos
 10
5387589.05242
 20
6253002.49029
 30
0.0
  0
POINT
  8
Puntos
 10
5387810.18505
 20
6252788.17168
 30
0.0
  0
POINT
  8
Puntos
 10
5385950.17275
 20
6253133.89685
 30
0.0
  0
POINT
  8
Puntos
 10
5386613.12453
 20
6253182.30447
 30
0.0
  0
POINT
  8
Puntos
 10
5385163.62765
 20
6252106.34433
 30
0.0
  0
POINT
  8
Puntos
 10
5385170.80688
 20
6252099.37982
 30
0.0
  0
POINT
  8
Puntos
 10
5385168.80029
 20
6252097.30526
 30
0.0
  0
POINT
  8
Puntos
 10
5385160.3788
 20
6252088.5952
 30
0.0
  0
POINT
  8
Puntos
 10
5385153.19959
 20
6252095.55872
 30
0.0
  0
POINT
  8
Puntos
 10
5385162.02714
 20
6252104.68875
 30
0.0
  0
POINT
  8
Puntos
 10
5385056.82589
 20
6252209.94452
 30
0.0
  0
POINT
  8
Puntos
 10
5385055.21352
 20
6252208.27679
 30
0.0
  0
POINT
  8
Puntos
 10
5385046.39782
 20
6252199.15891
 30
0.0
  0
POINT
  8
Puntos
 10
5387076.65339
 20
6252086.71938
 30
0.0
  0
POINT
  8
Puntos
 10
5387075.79172
 20
6252076.75476
 30
0.0
  0
POINT
  8
Puntos
 10
5387057.68395
 20
6252420.36527
 30
0.0
  0
POINT
  8
Puntos
 10
5387065.61048
 20
6252338.51959
 30
0.0
  0
POINT
  8
Puntos
 10
5387078.81887
 20
6252322.73241
 30
0.0
  0
POINT
  8
Puntos
 10
5387077.0686
 20
6252282.9543
 30
0.0
  0
POINT
  8
Puntos
 10
5387092.12145
 20
6252263.57943
 30
0.0
  0
POINT
  8
Puntos
 10
5387084.79501
 20
6252193.9476
 30
0.0
  0
POINT
  8
Puntos
 10
5387084.58844
 20
6252110.62604
 30
0.0
  0
POINT
  8
Puntos
 10
5387077.63905
 20
6252098.10381
 30
0.0
  0
POINT
  8
Puntos
 10
5387073.01948
 20
6252044.71016
 30
0.0
  0
POINT
  8
Puntos
 10
5387082.49086
 20
6252035.52267
 30
0.0
  0
POINT
  8
Puntos
 10
5385784.94364
 20
6252734.55843
 30
0.0
  0
POINT
  8
Puntos
 10
5385777.75457
 20
6252741.51183
 30
0.0
  0
POINT
  8
Puntos
 10
5386064.15315
 20
6253023.33313
 30
0.0
  0
POINT
  8
Puntos
 10
5386056.97397
 20
6253030.29665
 30
0.0
  0
POINT
  8
Puntos
 10
5387110.66689
 20
6252073.73841
 30
0.0
  0
POINT
  8
Puntos
 10
5387111.52956
 20
6252083.70304
 30
0.0
  0
POINT
  8
Puntos
 10
5387109.80523
 20
6252063.7738
 30
0.0
  0
POINT
  8
Puntos
 10
5387111.87033
 20
6252087.64703
 30
0.0
  0
POINT
  8
Puntos
 10
5387119.57065
 20
6252101.52258
 30
0.0
  0
POINT
  8
Puntos
 10
5387109.80523
 20
6252063.7738
 30
0.0
  0
POINT
  8
Puntos
 10
5387390.68936
 20
6252597.92603
 30
0.0
  0
POINT
  8
Puntos
 10
5387363.62991
 20
6252613.45703
 30
0.0
  0
POINT
  8
Puntos
 10
5387364.38633
 20
6252628.7776
 30
0.0
  0
POINT
  8
Puntos
 10
5387384.19091
 20
6252624.2701
 30
0.0
  0
POINT
  8
Puntos
 10
5387383.81038
 20
6252616.55278
 30
0.0
  0
POINT
  8
Puntos
 10
5387371.07024
 20
6252593.31067
 30
0.0
  0
POINT
  8
Puntos
 10
5387207.16384
 20
6252606.56379
 30
0.0
  0
POINT
  8
Puntos
 10
5387399.6687
 20
6252580.97687
 30
0.0
  0
POINT
  8
Puntos
 10
5387437.32122
 20
6252487.43815
 30
0.0
  0
POINT
  8
Puntos
 10
5387418.39858
 20
6252480.87869
 30
0.0
  0
POINT
  8
Puntos
 10
5387385.93281
 20
6252561.53068
 30
0.0
  0
POINT
  8
Puntos
 10
5387440.39926
 20
6252405.70543
 30
0.0
  0
POINT
  8
Puntos
 10
5387099.40943
 20
6252352.67525
 30
0.0
  0
POINT
  8
Puntos
 10
5387094.74469
 20
6252400.83532
 30
0.0
  0
POINT
  8
Puntos
 10
5387128.4086
 20
6252273.93006
 30
0.0
  0
POINT
  8
Puntos
 10
5387119.79658
 20
6252192.06802
 30
0.0
  0
POINT
  8
Puntos
 10
5387112.60601
 20
6252294.27016
 30
0.0
  0
POINT
  8
Puntos
 10
5387114.3886
 20
6252334.77182
 30
0.0
  0
POINT
  8
Puntos
 10
5387371.07024
 20
6252593.31067
 30
0.0
  0
POINT
  8
Puntos
 10
5387385.93281
 20
6252561.53068
 30
0.0
  0
POINT
  8
Puntos
 10
5387456.39843
 20
6252422.25311
 30
0.0
  0
POINT
  8
Puntos
 10
5387439.06345
 20
6252820.78705
 30
0.0
  0
POINT
  8
Puntos
 10
5387441.04547
 20
6252810.98459
 30
0.0
  0
POINT
  8
Puntos
 10
5387434.68466
 20
6252842.44847
 30
0.0
  0
POINT
  8
Puntos
 10
5387458.67039
 20
6252824.75011
 30
0.0
  0
POINT
  8
Puntos
 10
5387451.55672
 20
6252859.94082
 30
0.0
  0
POINT
  8
Puntos
 10
5387460.65141
 20
6252814.94764
 30
0.0
  0
POINT
  8
Puntos
 10
5387461.87314
 20
6252808.90691
 30
0.0
  0
POINT
  8
Puntos
 10
5387589.05242
 20
6253002.49029
 30
0.0
  0
POINT
  8
Puntos
 10
5387810.18505
 20
6252788.17168
 30
0.0
  0
POINT
  8
Puntos
 10
5385950.17275
 20
6253133.89685
 30
0.0
  0
POINT
  8
Puntos
 10
5386613.12453
 20
6253182.30447
 30
0.0
  0
ENDSEC
  0
EOF
