  0
SECTION
  2
ENTITIES
  0
POINT
  8
Puntos
 10
5385163.628
 20
6252106.344
 30
0.0
  0
POINT
  8
Puntos
 10
5385170.807
 20
6252099.38
 30
0.0
  0
POINT
  8
Puntos
 10
5385168.8
 20
6252097.305
 30
0.0
  0
POINT
  8
Puntos
 10
5385160.379
 20
6252088.595
 30
0.0
  0
POINT
  8
Puntos
 10
5385153.2
 20
6252095.559
 30
0.0
  0
POINT
  8
Puntos
 10
5385162.027
 20
6252104.689
 30
0.0
  0
POINT
  8
Puntos
 10
5385056.826
 20
6252209.945
 30
0.0
  0
POINT
  8
Puntos
 10
5385055.214
 20
6252208.277
 30
0.0
  0
POINT
  8
Puntos
 10
5385046.398
 20
6252199.159
 30
0.0
  0
POINT
  8
Puntos
 10
5387076.653
 20
6252086.719
 30
0.0
  0
POINT
  8
Puntos
 10
5387075.792
 20
6252076.755
 30
0.0
  0
POINT
  8
Puntos
 10
5387057.684
 20
6252420.365
 30
0.0
  0
POINT
  8
Puntos
 10
5387065.61
 20
6252338.52
 30
0.0
  0
POINT
  8
Puntos
 10
5387078.819
 20
6252322.732
 30
0.0
  0
POINT
  8
Puntos
 10
5387077.069
 20
6252282.954
 30
0.0
  0
POINT
  8
Puntos
 10
5387092.121
 20
6252263.579
 30
0.0
  0
POINT
  8
Puntos
 10
5387084.795
 20
6252193.948
 30
0.0
  0
POINT
  8
Puntos
 10
5387084.588
 20
6252110.626
 30
0.0
  0
POINT
  8
Puntos
 10
5387077.639
 20
6252098.104
 30
0.0
  0
POINT
  8
Puntos
 10
5387073.019
 20
6252044.71
 30
0.0
  0
POINT
  8
Puntos
 10
5387082.491
 20
6252035.523
 30
0.0
  0
POINT
  8
Puntos
 10
5385784.944
 20
6252734.558
 30
0.0
  0
POINT
  8
Puntos
 10
5385777.755
 20
6252741.512
 30
0.0
  0
POINT
  8
Puntos
 10
5386064.153
 20
6253023.333
 30
0.0
  0
POINT
  8
Puntos
 10
5386056.974
 20
6253030.297
 30
0.0
  0
POINT
  8
Puntos
 10
5387110.667
 20
6252073.738
 30
0.0
  0
POINT
  8
Puntos
 10
5387111.53
 20
6252083.703
 30
0.0
  0
POINT
  8
Puntos
 10
5387109.805
 20
6252063.774
 30
0.0
  0
POINT
  8
Puntos
 10
5387111.87
 20
6252087.647
 30
0.0
  0
POINT
  8
Puntos
 10
5387119.571
 20
6252101.523
 30
0.0
  0
POINT
  8
Puntos
 10
5387109.805
 20
6252063.774
 30
0.0
  0
POINT
  8
Puntos
 10
5387390.689
 20
6252597.926
 30
0.0
  0
POINT
  8
Puntos
 10
5387363.63
 20
6252613.457
 30
0.0
  0
POINT
  8
Puntos
 10
5387364.386
 20
6252628.778
 30
0.0
  0
POINT
  8
Puntos
 10
5387384.191
 20
6252624.27
 30
0.0
  0
POINT
  8
Puntos
 10
5387383.81
 20
6252616.553
 30
0.0
  0
POINT
  8
Puntos
 10
5387371.07
 20
6252593.311
 30
0.0
  0
POINT
  8
Puntos
 10
5387207.164
 20
6252606.564
 30
0.0
  0
POINT
  8
Puntos
 10
5387399.669
 20
6252580.977
 30
0.0
  0
POINT
  8
Puntos
 10
5387437.321
 20
6252487.438
 30
0.0
  0
POINT
  8
Puntos
 10
5387418.399
 20
6252480.879
 30
0.0
  0
POINT
  8
Puntos
 10
5387385.933
 20
6252561.531
 30
0.0
  0
POINT
  8
Puntos
 10
5387440.399
 20
6252405.705
 30
0.0
  0
POINT
  8
Puntos
 10
5387099.409
 20
6252352.675
 30
0.0
  0
POINT
  8
Puntos
 10
5387094.745
 20
6252400.835
 30
0.0
  0
POINT
  8
Puntos
 10
5387128.409
 20
6252273.93
 30
0.0
  0
POINT
  8
Puntos
 10
5387119.797
 20
6252192.068
 30
0.0
  0
POINT
  8
Puntos
 10
5387112.606
 20
6252294.27
 30
0.0
  0
POINT
  8
Puntos
 10
5387114.389
 20
6252334.772
 30
0.0
  0
POINT
  8
Puntos
 10
5387371.07
 20
6252593.311
 30
0.0
  0
POINT
  8
Puntos
 10
5387385.933
 20
6252561.531
 30
0.0
  0
POINT
  8
Puntos
 10
5387456.398
 20
6252422.253
 30
0.0
  0
POINT
  8
Puntos
 10
5387439.063
 20
6252820.787
 30
0.0
  0
POINT
  8
Puntos
 10
5387441.045
 20
6252810.985
 30
0.0
  0
POINT
  8
Puntos
 10
5387434.685
 20
6252842.448
 30
0.0
  0
POINT
  8
Puntos
 10
5387458.67
 20
6252824.75
 30
0.0
  0
POINT
  8
Puntos
 10
5387451.557
 20
6252859.941
 30
0.0
  0
POINT
  8
Puntos
 10
5387460.651
 20
6252814.948
 30
0.0
  0
POINT
  8
Puntos
 10
5387461.873
 20
6252808.907
 30
0.0
  0
POINT
  8
Puntos
 10
5387589.052
 20
6253002.49
 30
0.0
  0
POINT
  8
Puntos
 10
5387810.185
 20
6252788.172
 30
0.0
  0
POINT
  8
Puntos
 10
5385950.173
 20
6253133.897
 30
0.0
  0
POINT
  8
Puntos
 10
5386613.125
 20
6253182.304
 30
0.0
  0
ENDSEC
  0
EOF
